<svg width="37" height="35" viewBox="0 0 37 35" fill="none" xmlns="http://www.w3.org/2000/svg">
<path d="M4.62499 6.56249C4.42071 6.55976 4.21788 6.59546 4.0283 6.66752C3.83873 6.73959 3.66618 6.84657 3.5207 6.98226C3.37521 7.11795 3.25968 7.27964 3.18083 7.45793C3.10198 7.63622 3.06137 7.82756 3.06137 8.02083C3.06137 8.21409 3.10198 8.40543 3.18083 8.58372C3.25968 8.76201 3.37521 8.9237 3.5207 9.05939C3.66618 9.19508 3.83873 9.30207 4.0283 9.37413C4.21788 9.44619 4.42071 9.48189 4.62499 9.47916H32.375C32.5793 9.48189 32.7821 9.44619 32.9717 9.37413C33.1613 9.30207 33.3338 9.19508 33.4793 9.05939C33.6248 8.9237 33.7403 8.76201 33.8192 8.58372C33.898 8.40543 33.9386 8.21409 33.9386 8.02083C33.9386 7.82756 33.898 7.63622 33.8192 7.45793C33.7403 7.27964 33.6248 7.11795 33.4793 6.98226C33.3338 6.84657 33.1613 6.73959 32.9717 6.66752C32.7821 6.59546 32.5793 6.55976 32.375 6.56249H4.62499ZM4.62499 16.0417C4.42071 16.0389 4.21788 16.0746 4.0283 16.1467C3.83873 16.2188 3.66618 16.3257 3.5207 16.4614C3.37521 16.5971 3.25968 16.7588 3.18083 16.9371C3.10198 17.1154 3.06137 17.3067 3.06137 17.5C3.06137 17.6933 3.10198 17.8846 3.18083 18.0629C3.25968 18.2412 3.37521 18.4029 3.5207 18.5386C3.66618 18.6743 3.83873 18.7812 4.0283 18.8533C4.21788 18.9254 4.42071 18.9611 4.62499 18.9583H32.375C32.5793 18.9611 32.7821 18.9254 32.9717 18.8533C33.1613 18.7812 33.3338 18.6743 33.4793 18.5386C33.6248 18.4029 33.7403 18.2412 33.8192 18.0629C33.898 17.8846 33.9386 17.6933 33.9386 17.5C33.9386 17.3067 33.898 17.1154 33.8192 16.9371C33.7403 16.7588 33.6248 16.5971 33.4793 16.4614C33.3338 16.3257 33.1613 16.2188 32.9717 16.1467C32.7821 16.0746 32.5793 16.0389 32.375 16.0417H4.62499ZM4.62499 25.5208C4.42071 25.5181 4.21788 25.5538 4.0283 25.6259C3.83873 25.6979 3.66618 25.8049 3.5207 25.9406C3.37521 26.0763 3.25968 26.238 3.18083 26.4163C3.10198 26.5946 3.06137 26.7859 3.06137 26.9792C3.06137 27.1724 3.10198 27.3638 3.18083 27.5421C3.25968 27.7203 3.37521 27.882 3.5207 28.0177C3.66618 28.1534 3.83873 28.2604 4.0283 28.3325C4.21788 28.4045 4.42071 28.4402 4.62499 28.4375H32.375C32.5793 28.4402 32.7821 28.4045 32.9717 28.3325C33.1613 28.2604 33.3338 28.1534 33.4793 28.0177C33.6248 27.882 33.7403 27.7203 33.8192 27.5421C33.898 27.3638 33.9386 27.1724 33.9386 26.9792C33.9386 26.7859 33.898 26.5946 33.8192 26.4163C33.7403 26.238 33.6248 26.0763 33.4793 25.9406C33.3338 25.8049 33.1613 25.6979 32.9717 25.6259C32.7821 25.5538 32.5793 25.5181 32.375 25.5208H4.62499Z" fill="#BDBDBD"/>
</svg>
