<svg width="164" height="50" viewBox="0 0 164 50" fill="none" xmlns="http://www.w3.org/2000/svg">
<path d="M68.28 33.11C67.3413 33.11 66.4393 32.978 65.574 32.714C64.7233 32.4353 64.056 32.0907 63.572 31.68L64.276 30.448C64.76 30.8293 65.3687 31.1447 66.102 31.394C66.8353 31.6287 67.598 31.746 68.39 31.746C69.446 31.746 70.2233 31.5847 70.722 31.262C71.2353 30.9247 71.492 30.4553 71.492 29.854C71.492 29.4287 71.3527 29.0987 71.074 28.864C70.7953 28.6147 70.4433 28.4313 70.018 28.314C69.5927 28.182 69.028 28.0573 68.324 27.94C67.3853 27.764 66.63 27.588 66.058 27.412C65.486 27.2213 64.9947 26.906 64.584 26.466C64.188 26.026 63.99 25.4173 63.99 24.64C63.99 23.672 64.3933 22.88 65.2 22.264C66.0067 21.648 67.1287 21.34 68.566 21.34C69.314 21.34 70.062 21.4427 70.81 21.648C71.558 21.8387 72.174 22.0953 72.658 22.418L71.976 23.672C71.0227 23.012 69.886 22.682 68.566 22.682C67.5687 22.682 66.8133 22.858 66.3 23.21C65.8013 23.562 65.552 24.024 65.552 24.596C65.552 25.036 65.6913 25.388 65.97 25.652C66.2633 25.916 66.6227 26.114 67.048 26.246C67.4733 26.3633 68.06 26.488 68.808 26.62C69.732 26.796 70.4727 26.972 71.03 27.148C71.5873 27.324 72.064 27.6247 72.46 28.05C72.856 28.4753 73.054 29.062 73.054 29.81C73.054 30.822 72.6287 31.6287 71.778 32.23C70.942 32.8167 69.776 33.11 68.28 33.11ZM86.3697 21.428V33H84.8737V30.888C84.463 31.592 83.8983 32.142 83.1797 32.538C82.461 32.9193 81.6397 33.11 80.7157 33.11C79.205 33.11 78.0097 32.692 77.1297 31.856C76.2643 31.0053 75.8317 29.766 75.8317 28.138V21.428H77.3937V27.984C77.3937 29.2013 77.6943 30.1253 78.2957 30.756C78.897 31.3867 79.755 31.702 80.8697 31.702C82.087 31.702 83.0477 31.3353 83.7517 30.602C84.4557 29.854 84.8077 28.82 84.8077 27.5V21.428H86.3697ZM96.6404 21.34C98.0924 21.34 99.2437 21.7653 100.094 22.616C100.96 23.452 101.392 24.6767 101.392 26.29V33H99.8304V26.444C99.8304 25.2413 99.5297 24.3247 98.9284 23.694C98.3271 23.0633 97.4691 22.748 96.3544 22.748C95.1077 22.748 94.1177 23.122 93.3844 23.87C92.6657 24.6033 92.3064 25.6227 92.3064 26.928V33H90.7444V21.428H92.2404V23.562C92.6657 22.858 93.2524 22.3153 94.0004 21.934C94.7631 21.538 95.6431 21.34 96.6404 21.34ZM108.735 33.11C107.796 33.11 106.894 32.978 106.029 32.714C105.178 32.4353 104.511 32.0907 104.027 31.68L104.731 30.448C105.215 30.8293 105.824 31.1447 106.557 31.394C107.29 31.6287 108.053 31.746 108.845 31.746C109.901 31.746 110.678 31.5847 111.177 31.262C111.69 30.9247 111.947 30.4553 111.947 29.854C111.947 29.4287 111.808 29.0987 111.529 28.864C111.25 28.6147 110.898 28.4313 110.473 28.314C110.048 28.182 109.483 28.0573 108.779 27.94C107.84 27.764 107.085 27.588 106.513 27.412C105.941 27.2213 105.45 26.906 105.039 26.466C104.643 26.026 104.445 25.4173 104.445 24.64C104.445 23.672 104.848 22.88 105.655 22.264C106.462 21.648 107.584 21.34 109.021 21.34C109.769 21.34 110.517 21.4427 111.265 21.648C112.013 21.8387 112.629 22.0953 113.113 22.418L112.431 23.672C111.478 23.012 110.341 22.682 109.021 22.682C108.024 22.682 107.268 22.858 106.755 23.21C106.256 23.562 106.007 24.024 106.007 24.596C106.007 25.036 106.146 25.388 106.425 25.652C106.718 25.916 107.078 26.114 107.503 26.246C107.928 26.3633 108.515 26.488 109.263 26.62C110.187 26.796 110.928 26.972 111.485 27.148C112.042 27.324 112.519 27.6247 112.915 28.05C113.311 28.4753 113.509 29.062 113.509 29.81C113.509 30.822 113.084 31.6287 112.233 32.23C111.397 32.8167 110.231 33.11 108.735 33.11ZM122.293 21.34C123.745 21.34 124.896 21.7653 125.747 22.616C126.612 23.452 127.045 24.6767 127.045 26.29V33H125.483V26.444C125.483 25.2413 125.182 24.3247 124.581 23.694C123.979 23.0633 123.121 22.748 122.007 22.748C120.76 22.748 119.77 23.122 119.037 23.87C118.318 24.6033 117.959 25.6227 117.959 26.928V33H116.397V16.676H117.959V23.452C118.384 22.7773 118.971 22.2567 119.719 21.89C120.467 21.5233 121.325 21.34 122.293 21.34ZM131.285 21.428H132.847V33H131.285V21.428ZM132.077 18.898C131.755 18.898 131.483 18.788 131.263 18.568C131.043 18.348 130.933 18.084 130.933 17.776C130.933 17.4827 131.043 17.226 131.263 17.006C131.483 16.786 131.755 16.676 132.077 16.676C132.4 16.676 132.671 16.786 132.891 17.006C133.111 17.2113 133.221 17.4607 133.221 17.754C133.221 18.0767 133.111 18.348 132.891 18.568C132.671 18.788 132.4 18.898 132.077 18.898ZM143.09 21.34C144.542 21.34 145.693 21.7653 146.544 22.616C147.409 23.452 147.842 24.6767 147.842 26.29V33H146.28V26.444C146.28 25.2413 145.979 24.3247 145.378 23.694C144.776 23.0633 143.918 22.748 142.804 22.748C141.557 22.748 140.567 23.122 139.834 23.87C139.115 24.6033 138.756 25.6227 138.756 26.928V33H137.194V21.428H138.69V23.562C139.115 22.858 139.702 22.3153 140.45 21.934C141.212 21.538 142.092 21.34 143.09 21.34ZM162.201 27.698H152.521C152.609 28.9007 153.071 29.876 153.907 30.624C154.743 31.3573 155.799 31.724 157.075 31.724C157.794 31.724 158.454 31.5993 159.055 31.35C159.657 31.086 160.177 30.7047 160.617 30.206L161.497 31.218C160.984 31.834 160.339 32.3033 159.561 32.626C158.799 32.9487 157.955 33.11 157.031 33.11C155.843 33.11 154.787 32.8607 153.863 32.362C152.954 31.8487 152.243 31.1447 151.729 30.25C151.216 29.3553 150.959 28.3433 150.959 27.214C150.959 26.0847 151.201 25.0727 151.685 24.178C152.184 23.2833 152.859 22.5867 153.709 22.088C154.575 21.5893 155.543 21.34 156.613 21.34C157.684 21.34 158.645 21.5893 159.495 22.088C160.346 22.5867 161.013 23.2833 161.497 24.178C161.981 25.058 162.223 26.07 162.223 27.214L162.201 27.698ZM156.613 22.682C155.499 22.682 154.56 23.0413 153.797 23.76C153.049 24.464 152.624 25.388 152.521 26.532H160.727C160.625 25.388 160.192 24.464 159.429 23.76C158.681 23.0413 157.743 22.682 156.613 22.682Z" fill="#F2994A"/>
<circle cx="25" cy="25" r="25" fill="url(#paint0_linear)"/>
<defs>
<linearGradient id="paint0_linear" x1="25" y1="0" x2="25" y2="50" gradientUnits="userSpaceOnUse">
<stop stop-color="white"/>
<stop offset="0.608383" stop-color="#EA8121" stop-opacity="0.94"/>
<stop offset="1" stop-color="#FF5C00"/>
</linearGradient>
</defs>
</svg>
